<svg xmlns="http://www.w3.org/2000/svg" xmlns:svg="http://www.w3.org/2000/svg" id="svg2" width="36" height="36" x="0" y="0" enable-background="new 0 0 16 16" overflow="visible" version="1.1" viewBox="0 0 36 36" xml:space="preserve" style="overflow:visible"><metadata id="metadata10"/><path id="path6" d="m 13.000411,10.815115 c 0,0 0,0 0,0 -2.390775,1.384529 -3.9961818,3.60752 -4.6588796,6.08285 -0.661363,2.47266 -0.380017,5.200329 1.0000458,7.594216 1.3813968,2.393887 3.6001638,4.002719 6.0709438,4.664943 2.472113,0.663559 5.196238,0.381847 7.587014,-1.001347 2.390776,-1.380524 3.997516,-3.603515 4.65888,-6.078845 0.661364,-2.47533 0.380018,-5.201664 -0.998712,-7.594217 -0.456022,-0.790396 -1.004046,-1.492674 -1.621408,-2.102829 -0.620028,-0.611489 -1.306727,-1.132189 -2.041427,-1.556761 l -0.837371,1.453956 -0.838706,1.452621 c 0.492023,0.284383 0.953378,0.623506 1.36673,1.02805 0.414685,0.401874 0.782702,0.863829 1.085383,1.391205 0.920042,1.59548 1.106717,3.415261 0.666697,5.065481 -0.441354,1.650221 -1.512069,3.132214 -3.106809,4.052119 -1.592072,0.921239 -3.408156,1.109492 -5.056232,0.667564 -1.648075,-0.443263 -3.12681,-1.515372 -4.048185,-3.110851 -0.920042,-1.59548 -1.10805,-3.415262 -0.666696,-5.065482 0.441353,-1.65022 1.512068,-3.132214 3.105475,-4.053453 l 1.333394,2.312444 2.166766,-3.757054 L 20.334079,8.5 l -4.333531,0 -4.333531,0.0027 1.333394,2.312445 z" style="fill:#585858"/><path style="fill:#585858" id="path5" d="M 33,36 3,36 C 1.3,36 0,34.7 0,33 L 0,5 C 0,3.3 1.3,2 3,2 l 30,0 c 1.7,0 3,1.3 3,3 l 0,28 c 0,1.7 -1.3,3 -3,3 z M 3,4 C 2.4,4 2,4.4 2,5 l 0,28 c 0,0.6 0.4,1 1,1 l 30,0 c 0.6,0 1,-0.4 1,-1 L 34,5 C 34,4.4 33.6,4 33,4 L 3,4 Z"/></svg>