<svg xmlns="http://www.w3.org/2000/svg" xmlns:xlink="http://www.w3.org/1999/xlink" width="164" height="183" x="0" y="0" enable-background="new .5 .5 164 183" overflow="visible" version="1.1" viewBox="0.5 0.5 164 183" xml:space="preserve"><rect width="164" height="183" x=".5" y=".5" fill="#FFF" stroke="#FFF" stroke-miterlimit="10"/><path fill="#585858" d="M69.5,164.5c0,2.762-2.239,5-5,5h-43c-2.761,0-5-2.238-5-5v-56c0-2.761,2.239-5,5-5h43c2.761,0,5,2.239,5,5	V164.5z"/><rect width="9" height="12" x="38.5" y="110.5" fill="#FFF"/><rect width="9" height="12" x="53.5" y="110.5" fill="#FFF"/><rect width="9" height="12" x="23.5" y="110.5" fill="#FFF"/><rect width="9" height="12" x="38.5" y="129.5" fill="#FFF"/><rect width="9" height="12" x="53.5" y="129.5" fill="#FFF"/><rect width="9" height="12" x="23.5" y="129.5" fill="#FFF"/><rect width="9" height="12" x="53.5" y="150.5" fill="#FFF"/><rect width="9" height="12" x="23.5" y="150.5" fill="#FFF"/><path fill="#585858" d="M149.5,164.5c0,2.762-2.238,5-5,5h-57c-2.762,0-5-2.238-5-5v-125c0-2.761,2.238-5,5-5h57	c2.762,0,5,2.239,5,5V164.5z"/><rect width="11" height="12" x="91.5" y="77.5" fill="#FFF"/><rect width="11" height="12" x="110.5" y="77.5" fill="#FFF"/><rect width="11" height="12" x="129.5" y="77.5" fill="#FFF"/><rect width="11" height="12" x="91.5" y="95.5" fill="#FFF"/><rect width="11" height="12" x="110.5" y="95.5" fill="#FFF"/><rect width="11" height="12" x="129.5" y="95.5" fill="#FFF"/><rect width="11" height="12" x="91.5" y="113.5" fill="#FFF"/><rect width="11" height="12" x="110.5" y="113.5" fill="#FFF"/><rect width="11" height="12" x="129.5" y="113.5" fill="#FFF"/><rect width="11" height="12" x="91.5" y="131.5" fill="#FFF"/><rect width="11" height="12" x="110.5" y="131.5" fill="#FFF"/><rect width="11" height="12" x="129.5" y="131.5" fill="#FFF"/><rect width="11" height="12" x="91.5" y="149.5" fill="#FFF"/><rect width="11" height="12" x="129.5" y="149.5" fill="#FFF"/><rect width="11" height="12" x="91.5" y="59.5" fill="#FFF"/><rect width="11" height="12" x="110.5" y="59.5" fill="#FFF"/><rect width="11" height="12" x="129.5" y="59.5" fill="#FFF"/><rect width="11" height="12" x="91.5" y="42.5" fill="#FFF"/><rect width="11" height="12" x="110.5" y="42.5" fill="#FFF"/><rect width="11" height="12" x="129.5" y="42.5" fill="#FFF"/></svg>