<svg xmlns="http://www.w3.org/2000/svg" xmlns:xlink="http://www.w3.org/1999/xlink" id="Layer_1" width="48" height="48" x="0" y="0" enable-background="new 0 0 48 48" version="1.1" viewBox="0 0 48 48" xml:space="preserve"><g><path fill="#585858" d="M24,48C10.767,48,0,37.233,0,24S10.767,0,24,0s24,10.767,24,24S37.233,48,24,48z M24,3 C12.42,3,3,12.42,3,24c0,11.579,9.42,21,21,21c11.579,0,21-9.421,21-21C45,12.42,35.579,3,24,3z"/><polygon fill="#585858" points="38 24 26 14.4 26 20.5 10 20.5 10 27.5 26 27.5 26 33.6"/></g></svg>