<svg xmlns="http://www.w3.org/2000/svg" xmlns:xlink="http://www.w3.org/1999/xlink" width="17" height="16" x="0" y="0" enable-background="new 0 0 17 16" overflow="visible" version="1.1" viewBox="0 0 17 16" xml:space="preserve"><polygon fill="#585858" points="17 10 14 10 14 7 11 7 11 10 8 10 8 13 11 13 11 16 14 16 14 13 17 13"/><polygon fill="#585858" points="11 0 7 0 6 0 0 6 0 7 0 14 0 16 2 16 7 16 7 14.5 3.75 14.5 2 14.5 1.5 14.5 1.5 7 2 7 2 7 7 7 7 2 7 1.5 11.5 1.5 11.5 2 11.5 5 13 5 13 2 13 0"/></svg>