<svg xmlns="http://www.w3.org/2000/svg" xmlns:xlink="http://www.w3.org/1999/xlink" width="16" height="16" x="0" y="0" enable-background="new -.5 -.5 16 16" overflow="visible" version="1.1" viewBox="-0.5 -0.5 16 16" xml:space="preserve"><circle cx="7.5" cy="7.5" r="7.5" fill="#FFF"/><g><path fill="#585858" d="M7.323,10.541c-0.389,0.389-1.025,0.389-1.414,0l-0.354-0.354c-0.389-0.389-0.388-1.025,0-1.414 l4.242-4.242c0.389-0.389,1.025-0.389,1.414,0l0.353,0.353c0.389,0.389,0.389,1.026,0,1.415L7.323,10.541z"/></g><g><path fill="#585858" d="M7.323,10.541c-0.389,0.389-1.025,0.389-1.414,0L3.436,8.065C3.046,7.676,3.047,7.04,3.437,6.651 l0.352-0.351c0.39-0.389,1.026-0.388,1.415,0l2.473,2.472c0.389,0.389,0.389,1.025,0,1.414L7.323,10.541z"/></g></svg>